<svg xmlns="http://www.w3.org/2000/svg" xmlns:xlink="http://www.w3.org/1999/xlink" version="1.1" id="Layer_1" x="0px" y="0px" viewBox="0 0 1444 625.3" style="enable-background:new 0 0 1444 625.3;" xml:space="preserve">
<style type="text/css">
  .st0{fill:#FFFFFF;}
</style>
<g>
  <polygon class="st0" points="716.6,583.3 681.4,117.3 437.7,117.3 356.5,378.9 277.2,117.3 32.9,117.3 3.6,583.3 156.1,583.3    174.7,268.4 265.9,583.3 433,583.3 532.9,254.4 554.9,583.3  "/>
  <g>
    <path class="st0" d="M1427.4,476.2c-4.1-1.1-2.2-6,0.9-6.1c1.8-0.1,2.8,1.2,2.5,2.9C1430.2,476.5,1429.8,474,1427.4,476.2     M1424,478.2c-0.9-0.1-0.9,0.5-2.5,0.3c0.3-1.9,1.6-2.5,1.8-4.1c0.2,0,0.4,0.1,0.6,0.1C1423.8,475.4,1424.3,476.4,1424,478.2     M1425.9,464.8c1.8,0.8,0.6,0.3,0.4,1.3C1425.5,466,1425.8,465.6,1425.9,464.8 M1393.8,459c-0.6-0.1-1.2-0.2-1.8-0.3    c0.1-0.8,0.2-1.6,0.3-2.4C1394.5,456.6,1394.1,456.8,1393.8,459 M1311,575.4c-2.6-0.4-3.3-2.7-0.2-3.1    C1310.7,573.1,1311.2,573.7,1311,575.4 M1307.6,590.4c-0.2,1.2-1.4-0.2-1.7-0.9c-1.9-3.9-0.1-10.8,4.1-11.2    C1309.6,581.2,1310.1,588.4,1307.6,590.4 M1303.1,591.7c-0.7,4.7-3.5-5.4-1-2C1302.6,590.3,1305.1,590.2,1303.1,591.7 M1302,599.6    C1295.7,604.4,1303.1,591.4,1302,599.6 M1297.6,595.2c-1.4-0.2-1.2-0.8-2.4-1c0.3-0.6,0.6-1.2,0.9-1.7    C1297.8,593.4,1297.9,593.3,1297.6,595.2 M1292,595.7c0.7-1.3,0.8-1.7,2.2-2.2c0.3,0.8,0.4,1.7,0.3,2.5    C1293.6,595.9,1292.8,595.8,1292,595.7 M1290.2,599.2c-0.9-0.1-1,0.5-2.5,0.3c0.9-1.3,0.2-2.5-1.5-2.7    C1288.9,594,1290.7,595.5,1290.2,599.2 M1282.7,431.6c-2.7-0.4-2.8-0.8-3-2.9C1279.3,424.2,1286,425.7,1282.7,431.6 M1278.3,422.9    c0.2-1.3-6.5-14.2,1.4-9.6c1.5,0.9,0.7,7.4,2.6,7.7C1281.4,423.3,1280.6,423.2,1278.3,422.9 M1160.9,604c-1.1,1.4-2.5,2.5-4.2,3.1    c0.6-3.3,2.5-1.9,0.8-5.8c-0.5-1.1-1.6-1.8-1.4-3c-2.3,0.4-9.2-2.2-8.9-5c0.4-3.8,6.9-1.4,9.3-1.8c1.3,5.6,2.1,0.3,3,0.7    C1164.1,594.6,1162.4,597.1,1160.9,604 M1145.4,590.6c-3.4-0.8-2.2-4.7,0.6-4.3C1145.7,588.5,1146.6,588.4,1145.4,590.6     M1144.7,595.5c-1.6-0.2-1.2-0.5-1-2c0.4,0.1,0.8,0.1,1.2,0.2C1144.9,594.3,1144.8,594.9,1144.7,595.5 M1176.7,288.7    C1167.1,291.9,1178.1,278.7,1176.7,288.7 M1152.3,241.2c-4.9-0.7-7.4-2.3-12.5-4.2c0.3,2.5-0.7,4.3-0.6,5.5c0-0.7,1,3.8,1.3,2.7    c-0.6,1.9,0.7,2.8-0.9,3.9c-4.7,3.6-7.3-8.7-6.7-11.8c0,0.1,2.8-2.1,2.8-2.1c0.3-0.6,0.4-3.7,1.2-4.6c1.1-1.3,3.4-3.4,5.5-3.1    c0-0.2,0.1-0.4,0.1-0.6c-4.3-0.6-11.9-9.2-7.1-11.7c6.2-3.3,15,13.5,8.2,12.5C1146.9,231.5,1158.5,232.6,1152.3,241.2     M1126.6,220.2c-2.9-0.7-6.6-0.3-6.7-4.1c0-2.7,2-4.3,4.2-4.9C1132.6,208.9,1130.2,216.9,1126.6,220.2 M1099.3,211.4    c-2.2-0.3-16.8,8.8-15.3-1.5c-13.2-1.9-3.3-12.3,5.9-12.4c2.7,0,4.7-0.3,6.4,1.5c0.8,0.8,1.1,5,1.3,5.9    C1098.1,207.7,1099.9,207.3,1099.3,211.4 M1074.8,204.8C1066.7,207.5,1075.8,197.3,1074.8,204.8 M1041.2,479    c0.2,1.4,0.2,2.9,0,4.4c-0.4-0.1-0.8-0.1-1.2-0.2c-0.4-1.5-0.6-2.9-0.6-4.4C1040,478.9,1040.6,479,1041.2,479 M1038,519.6    c0.2-1.4,2.9,1.7,2.6,3.5C1039.2,522.7,1035.9,521.2,1038,519.6 M1045.7,526.3c1.9,0.3,4.9,0.8,4.4,4.3c0.6,0.1,1.2,0.2,1.8,0.3    c-0.2,1.6-0.5,3.2-0.7,4.9C1050,535.1,1045.5,527.7,1045.7,526.3 M1025.2,468.7c-0.3,2-1-1.4-1-2    C1025.4,467.3,1026.7,467.6,1025.2,468.7 M1055,208.2c-2.8,5.5-10,0.3-5.7-3.9C1052.5,201.3,1055.9,208.4,1055,208.2     M1014.8,485.3c-1.6-0.2-1.3,0.1-1.5,1.7C1004.8,484.6,1015.7,479,1014.8,485.3 M1010.2,456.1c1.1-2.8,3.2-3,3,0.4    C1012.3,456.3,1011.3,456.2,1010.2,456.1 M1043.7,200.4c-0.7-2.2-7.4-3.6-2.5-7.9C1045.3,189,1053.3,201.8,1043.7,200.4     M1014.8,401.4c-1.8,9-12.1-4.6-5.8-8.5C1014.9,389.2,1015.6,401.5,1014.8,401.4 M1004,469.5c-1.8-0.3-1.9-0.3-2.2-2.2    c0.8-0.3,1.7-0.4,2.5-0.3C1004.2,467.8,1004.1,468.7,1004,469.5 M1004.7,442.2C995.7,443.4,1005.5,436.6,1004.7,442.2     M994.2,473.1c-2.5-1-5.9-1.6-6.2-4.6C991.2,469,998.3,467.3,994.2,473.1 M987.3,469c-2.3-0.9-7.4-4.6-7.1-7.2    c2.2,0.5,8.6,0.8,8.9,3.1C983.5,465.2,987.7,466,987.3,469 M977,458.2c-0.7-1.7-1.3-3.4-1.8-5.2c4.8-0.3,2.6,3.5,6.3,4    C980.4,459.8,979.4,459.1,977,458.2 M974.4,441.1c0.3-2.4,0-3.1,2.3-3.4c-0.1,0.9,0.3,2,0.1,3.7    C976.1,441.3,975.3,441.2,974.4,441.1 M979.7,399.6c-2.5-0.4-3.2,0.4-2.5-4.1C979.5,397,980.1,396.7,979.7,399.6 M973.6,442.8    c-1.2,0.2-1.6,1-2.6,0.9c0.2-1.2,0.3-2.4,0.5-3.7C973.5,440.9,973.9,440.7,973.6,442.8 M1003.2,201c1.5-4.2,8.1-6.7,9.3,0.1    c-0.9-0.1-2.2,1.8-3.5,2.2C1005.5,204.1,1006.1,201.4,1003.2,201 M1012.2,207.8c0.6-0.1,1.3-0.2,1.9-0.4c-0.1,0.4-0.1,0.8-0.2,1.2    C1013.1,208.5,1012,208.9,1012.2,207.8 M1030.4,197.9C1037.5,198.9,1024.5,206,1030.4,197.9 M967.7,440.8    C957.6,434.1,968.8,432.9,967.7,440.8 M975,331.2C977.3,317.1,986.9,340.5,975,331.2 M983.9,228.1c-0.7-4.5,3.1-4.5,3.3-5.8    C994.7,225.5,993.1,237.2,983.9,228.1 M963.9,357c-4.7-0.7-8.9-3.7-3.9-7.8C965.8,344.4,967.7,352.1,963.9,357 M957.6,348.6    c-1.7-0.2-4.6,3.5-6.1,3.5c-2.9-0.1-4.2-2.5-6.2-4.6c-6.5,9.4-13.5-7.4-2.9-6c-4.1-6.9-2.3-10.3,4.3-11.5c4.1-0.8,6-1.3,7.7,4.8    c0.4,1.5-0.9,3.8-0.3,5.8C956,346.4,958.7,340.8,957.6,348.6 M948.2,323.1c0.1-1,0.3-2,0.4-3C954.9,320.9,953.1,325.5,948.2,323.1     M958.8,199.1c5.8-0.1,20.8,1.2,14.6,10.8C968.2,217.8,952.3,207.2,958.8,199.1 M962.6,308.9c-0.3,1.8-1,2.6-1.1,3.6    c-1.8-0.7-2.7-2.1-2.5-4.1C960.2,308.2,961.4,308.4,962.6,308.9 M965.7,331.1c-2.7,2-3.4-3.1-3-4.6    C964.7,319.4,970.8,328.7,965.7,331.1 M978.4,183.2c3.2-2.6,11.9-0.4,13.8,3.2c1.3,2.4-1.6,7.1-2.3,7.8c-1.4,1.2-6.6,2.4-4-2.4    C983.2,191.4,971.5,187,978.4,183.2 M993.6,198.4C1004.7,199.9,988.4,207.9,993.6,198.4 M926.5,176.5c-2.9,0.4-7.8-2.8-3-5.4    C928.1,168.7,927.1,174.8,926.5,176.5 M902.8,186.2C894.5,182.8,909.1,177.4,902.8,186.2 M883.2,281c-0.6-0.1-1.2-0.2-1.8-0.3    c0.1-0.6,0.2-1.2,0.3-1.8C882.4,279.6,883.4,280,883.2,281 M831,246.3c-0.2,1.6-4.9,0.7-5.4-1.4    C823.6,236.4,837.5,242.2,831,246.3 M789.6,191.4c-1.2-0.2-0.6,1.9-2.2,2.2c-4.1,0.8-5.4-4.4-4.9-7.1    C784,178.1,790.6,184.2,789.6,191.4 M1440.3,477.4c-1.7-0.2,0.2-4.3-1.2-4.5c0.3-0.4,0.5-0.8,0.8-1.1c-1.4-0.2-2.6-7.6-3.1-8.7    c-1.8-4-4.4-7.7-7.1-11.1c-3.8-4.7-9.6-9-13-13.3c-3.7-4.6-6.7-7.5-9.4-12.5c-0.4-0.7-3.6-7.3-3.3-7.3c1.8-2.6-4.2-15.1-5.9-19    c-2.4-5.6-8.3-10.2-12.6-13.1c-7.7-5.3-15.2-10.3-23.4-16c-12.2-8.5-21.8-18.8-33.3-29.5c-3.6-3.4-6.7-7.8-10.6-10.8    c-3.2-2.6-8.8-6-11.9-8.3c-5.5-4.1-10.2-12.1-2-17c6.7-4,17.5,0.7,23,4.6c8.7,6.3,16.9,13.8,27.4,17.2c14.2,4.6,29.2,5.7,35.6-8    c3.2-6.9,4.6-15.1-3.5-21.6c-7.6-6.2-18.3-6.1-27.3-9.4c-12.6-4.6-23-19.7-34.7-26c-7.2-3.9-15.5-3.9-25-4.1    c-12.4-0.3-30.4-2-41.8-3.5c-2.4-0.3-3.6-1-4.8-1.1c-0.1,0.5-22,0.3-24.3,0.3c-10.1,0-20.9-4.3-29.2-9.1c-5.2-3-9-5.3-12.5-8.6    c-2.8-2.6-6-5.6-8.2-7.8c-0.8-0.8-4.3-5.3-5.1-5.7c-3.8-1.5-0.3,0.4-4.8,1c0.3-1.8-0.2-2.8-0.1-3.7c-3.9,1.6-13.1-3.6-17.8-5.8    c-6.3-2.9-10.8-9.7-17-17c-2.4-2.8-1.8-3.7-5.2-5.9c-2.2-1.4-6.1-2.9-8.2-3.5c-7-1.9-12.3-1-18.4-1.8c-7.6-1.1-16.5-1-25-1.3    c-6.3-0.2-15.3-0.3-21.2-0.5c-3.5-0.1-10.4,0.8-13.8-0.1c0.2-1.7-23.2-1.8-27.1-1.8c-6.1,0-12.4,0.9-18.9-2.5    c-6.7-3.5-12.1-9.8-19.5-13.6c-5.3-2.8-10.4-7.3-15.1-10c-5.9-3.5-11.6-4.3-18.4-5.9c-7.6-1.7-13.3-5.6-15.7-14    c-2.2-7.6,0.2-15.6-5.7-23.8c-3-4.2-6-7.5-7.7-11.3c-3.1-6.9-6.9-14.4-10-21.6c-1.1-2.5-1.9-3.5-2.6-6c-0.8-3-1-10.4-3.6-12    c-3.2-2-7.5,1.6-10.3,2.6c-12.1,4.2-17.6-8.2-17.4-17.7c0.4-14.3,4.8-28.6-6.4-38.5c-9-8-21-4.1-30.3,0.4    c-5.1,2.5-11.2,4.5-13.5,10.8c-2.5,7-0.6,18.6,0.1,26.1c0.9,10.1-2.9,15.7-4.3,26.1c-0.6,4.7,0.2,6.2,1.5,11.4    c2.5,9.7,4.2,17.1,4.2,27.3c0.1,13.7,5.1,27.9-11.1,34.8c-16.6,7.1-22.7-6.5-29.1-18.7c-4.9-9.5-7.7-21.9-16.4-29    c-6.9-5.6-13.8-0.7-13,8.7c0.2,2.5,3,6.8,4.7,9.7c3.3,5.9,7.6,12.7,10.5,18.9c4.2,8.8,15.3,19.6,4.7,28.6    c-4.1,3.5-12.2,5.4-12.6,12.2c-0.2,3.2,4.1,8.8,5.3,11.9c1.1,2.7,6.2,11.2,6.2,14.5c-0.2,10.5-9.1,7.1-13.2,5.3    c-1.7-0.8-5.6-4.4-8.3-2.7c-1.2,0.8-1.5,7.6-1.5,8.5c0,0.8,0.8,3,1.2,4.5c1.3,5,4,10.6,2.2,16.6c-2.7,8.8-21.9,9.5-10.7,19.5    c4.3,3.8,8.4,5.3,13.7,8.8c11.1,7.2,20.5,14.4,29.6,27.8c5.7,8.3,10.5,20.5,17.2,27.9c2.9,3.2,6.3,5.3,9.4,6.3    c8.3,2.6,20.3,2.2,27.3,6.6c3.5,2.2,9.3,5.1,13.4,8.4c7.9,6.3,15.5,15.4,23.3,21.9c7,5.9,13.4,12.6,21.2,17.3    c6.9,4.2,13.3,11.3,19.1,14.3c2,1.1,5.6,2.5,7.8,4.1c6.2,4.4,10.3,13.7,15.6,19.3c7.7,8,16,17.6,21.6,27.9    c6.4,11.8,12.9,23.9,21.7,36c7.1,9.7,17,13.6,24.4,20.8c11.9,11.7,26.4,25.6,34.9,41.1c3.9,7.1,5.6,14.1,9.3,22    c12.7,26.6,44.8,21.1,57-1c5.7-10.3,9-22.8,5.9-33.3c-4.7-16.4-17.3-28.9-28.2-42.5c-14.2-17.7-42.4-35.9-44.8-61.6    c-0.7-7.5-1.5-18.5,4.9-26c4.7-5.5,11-6.7,18-4.2c6.9,2.5,12,3,18.9,2.8c8.7-0.3,20.9,1.8,30.7,2.8c4.3,0.4,12.9,0.5,17.1,2.4    c-0.5,3.8,19,8.7,21.4,9.2c10.5,2.4,21.1,1.3,29.5,0.1c10.3-1.4,15.4,3.2,21.8,10.8c5.8,6.9,9.6,15.5,11.6,24.3    c2.1,9-0.3,13.3-6.2,19c-1.8,1.8-9.6,8.1-8.9,10.2c-4.3-0.6-9.6,12.6-11.5,15.2c-1.9,2.6-4.9,5.5-6.9,9c-1.9,3.5-4.7,7.4-6.5,10.9    c-4.9,9.7-16.2,18.1-23.9,26.5c-13,14.2-24.8,39.5-21.5,62.2c1.9,13,19.9,34.5,31.3,14c5.7-10.3,9.5-18.7,20.7-27.8    c11.5-9.4,22.7-16.4,34.8-27.4c7.2-6.6,6.4-14.7,12.4-25c3.8-6.6,8-13.1,13.1-19.9c6.2-8.4,13-16,18.4-24.8    c4.7-7.6,21.4-40.7,30.1-19.4c2.3,5.5,1.6,12.8,1.7,19.2c0.1,5.1,1.4,15.4-1.9,22.4c-4.8,10.3-14.7,24.3-19.3,35.8    c-4.9,12.1-12.9,31.1-9,44.4c4,13.9,22.3,22.6,36.7,19.8c12.6-2.5,13.3-11.7,16.3-25c2.3-10.3,3.9-18.6,7.2-27    c4-10.2,13.5-16.8,19.1-25.3c9.5-14.4,6.6-39.5,7.7-55.1c0.6-7.6-1.6-14.7-1.2-22.2c0.4-8,2.2-35.7,18.4-21.3    c16.3,14.4,31,92.4,64.5,59.7C1432.6,491.7,1441.4,483.5,1440.3,477.4"/>
  </g>
</g>
</svg>