<?xml version="1.0" encoding="UTF-8"?>
<svg id="Layer_1" data-name="Layer 1" xmlns="http://www.w3.org/2000/svg" viewBox="0 0 1224 792">
  <defs>
    <style>
      .cls-1 {
        fill: #fff;
        fill-rule: evenodd;
      }
    </style>
  </defs>
  <path class="cls-1" d="M1033.4,567.17c-4.16-5.71-24.54-28.28-26.9-30.86-2.36-2.57-5.6-13.76-5.6-13.76,0,0-1.29-5.63-5.2-16.59-6.61-18.56-26.15-27.07-26.15-27.07,0,0-33.5-23.77-48.37-37.72-14.86-13.94-34.19-30.28-34.19-30.28-18.2-11.85-14.5-19.07-12.79-21.82,3.11-5.01,7.44-6.16,17.04-4.97,12.93,1.6,21.45,11.51,37.09,22.19,15.64,10.69,43.64,12.06,55.05-1.88,11.41-13.94.73-25.69-5.61-30.75-6.34-5.06-29.57-9.6-36.53-12.5-6.96-2.9-19.96-17.54-19.96-17.54,0,0-4.63-4.66-16.76-11.81-12.13-7.15-21.28-4.75-25.65-4.41-4.38.35-26.23-1.44-30.47-2.04-4.24-.6-39.77-4.31-48.79-5.09-9.02-.79-32.98-2.39-42.53-5.18-9.54-2.78-28-20.76-34.79-27.16-6.79-6.4-19.25-11.2-28.64-13.96-9.38-2.76-20.16-15.01-28.73-26.95-8.57-11.94-61.05-11.3-70.65-11.37-9.6-.07-65.13-1.62-79.09-1.5-13.96.12-23.94-9.77-23.94-9.77,0,0-21.08-14.18-32.74-22.38-11.66-8.21-23.44-6.5-35.72-12.55-12.29-6.05-8.61-28.77-10.49-34.8-1.88-6.03-6.44-10.04-11.12-16.62-4.68-6.59-17.38-34.8-19.05-38.88-1.67-4.08.85-11.74-2.75-14.64-8.11-6.56-14.43,9.19-27.07,2.28-9.55-5.21-7.51-25.25-7.51-25.25,0,0,7.01-35.06-11.1-45.29-18.11-10.24-45.57,6.25-50.11,13.46-4.54,7.21-.99,29.82.38,39.46,1.37,9.64-2.84,13.38-6.65,25.66-3.81,12.28,5.25,28.77,8.79,48.01,3.54,19.24,4.43,32.34-14.89,44.37-19.31,12.02-31.4-14.83-31.4-14.83,0,0-24.73-54.26-37.3-45.77-12.57,8.49,8.07,36.06,15.73,48.83,7.66,12.77,10.87,24.12,7.94,30.11-2.93,6-15.48,10.96-18.05,15.57-2.57,4.61,6.53,20.04,10.2,28.13,3.67,8.1,3.24,11.14-.4,15.75-3.64,4.61-17.66-4.63-17.66-4.63-7.84-1.74-6.54,5.83-6.54,5.83,0,0,2.6,14.68,4.55,20.49,1.95,5.81-.07,9.57-1.34,14.07-1.27,4.5-17.65,9.84-18.27,13.39-1.12,6.44,35.6,22.24,46.35,35.03,8.43,10.02,25.12,37.79,25.12,37.79,0,0,11.17,23.48,27.91,22.43,16.74-1.05,19.11,3.32,29.85,8.66,10.74,5.34,16.36,12.3,28.96,24.07,12.6,11.77,32.07,27.7,42.93,35.18,10.86,7.48,27.3,17.67,33.04,23.79,5.73,6.13,13.42,18.06,19.57,24.24,6.15,6.18,16.67,20.64,26.37,37.96,9.69,17.32,23.33,36.9,28.76,43.62,5.44,6.72,19.43,14.65,27.4,21.51,7.97,6.87,21.51,24.09,21.51,24.09,0,0,11.31,8.82,24.91,39.25,13.1,29.3,29.66,43.32,57.63,25.97,27.97-17.35,26.47-47.56,22.2-64.11-4.27-16.56-24.57-35.58-24.57-35.58,0,0-36.8-39.43-52.34-59.06-15.54-19.63-15.19-37.24-6.68-55.41,8.51-18.17,24.51-6.34,33.39-4.46,8.88,1.89,17.67-1.56,27.14-.87,6.1.45,27,3.16,36.72,3.67,9.72.51,22.5,12.52,37.58,15.71,15.08,3.18,28.96-3.16,44.63-1.17,15.68,1.99,27.61,35.16,31.54,45.07,3.93,9.91-1.22,14.72-8.86,22.16-7.64,7.44-21.22,25.32-21.22,25.32,0,0-12.05,22.14-34.66,48.32-22.62,26.18-31.49,30.26-39.9,62.9-8.42,32.65,10.07,53.97,19.56,56.15,9.48,2.18,11.83-.89,20.67-18.37,8.84-17.48,17.35-23.52,24.58-29.53,7.23-6.01,34.98-27.85,41.23-31.44,6.25-3.59,8.82-14.29,11.45-22.43,2.63-8.14,4.8-11.45,4.8-11.45l30.83-43.75s20.76-43.25,34.44-40.69c13.5,2.53,11.07,31.77,11.15,43.27.09,11.5-1.84,14.63-10.6,30-8.76,15.37-16.78,36.15-26.61,66.69-9.82,30.53,17.31,38.82,17.31,38.82,0,0,23.2,6.03,35.52,1.59,12.33-4.44,14.04-37.81,19.06-56.9,5.02-19.08,19.87-26.36,28.3-42.41,8.43-16.05,5.67-75.16,5.67-75.16,0,0-4.32-40.4,8.69-43.67,13.01-3.28,18.17,10,21.1,14.88,2.93,4.88,21.4,43.01,21.4,43.01,13.92,29.62,27.71,37.51,51.15,19.1,20.77-16.31,3.92-45.05-.25-50.77ZM244.1,246.63c-.67.91-1.53,1.46-2.5,1.6h-1.05c-2.49-.35-5.4-3.03-5.96-6.92-.29-1.99.08-4.04,1.05-5.77.94-1.66,2.3-2.77,3.68-2.97.08,0,.16.02.24.03,3.23.45,5.31,3.39,5.84,7.08.4,2.72-.08,5.32-1.3,6.96ZM297.02,311c-.97,2.17-3.28,3.46-5.64,3.13l-1.43-.41c-1.06-.47-1.82-1.24-2.2-2.23-.49-1.26-.36-2.86.38-4.51,1.09-2.45,2.87-3.7,4.89-3.41,3.96,1.57,5.19,4.74,3.99,7.44ZM358.09,356.31c-1.59-.22-2.31-.96-2.14-2.19.19-1.36,1.42-2.31,2.75-2.13,1.32.19,2.23,1.44,2.04,2.8-.17,1.23-1.06,1.74-2.65,1.52ZM383.64,239.26l-.58-.02c-2.07-.29-2.78-2.66-2.82-2.76-.04-.54-.12-3.94,1.91-4.77.29,0,.57.03.81.07,2.35.33,3.4,1.84,3.26,3.3-.15,1.65-.36,4.06-2.58,4.18ZM412.78,226.92c-.89.63-1.83.88-2.78.75-2.1-.3-3.68-2.42-3.8-3.43-.21-1.56.33-4.34,3.61-4.88.22.02.45.04.65.07,2.62.37,3.96,1.63,4.33,3.16.38,1.58-.35,3.16-2.02,4.34ZM559.61,656.8c.56-.47,1.17-.66,1.82-.57.94.13,1.75.82,2.62,1.54,1.6,1.34,2.11,3.06,1.77,4.86.09,0,.19.03.3.05.35-.18.7-.34.94-.31.33.05.56.25.74.52.4.57.49,1.35.26,2.3l-.33,1.47c-.36,1.74-.59,2.9-2.09,2.75l-.12-.02c-2.01-.28-2.26-2.63-2.03-6.08-.02.02-.04.02-.09.01-.68-.1-4.4-2.59-4.55-4.78l-.02-.35.79-1.39ZM549.7,648.4c.45-.2.92-.27,1.4-.2,1.33.19,2.39,1.36,2.93,2.41.27.53.67,1.5.28,2.23l-.22.42-1.56.58c-.57-.08-1.22-.4-2.15-1.06-.36-.28-1.98-1.61-1.83-2.96l.04-.38,1.1-1.04ZM551.69,598.44c.28.03.51.05.73.08,2.1.3,2.37,1.02,2.52,2.88.13,1.71.1,2.81-.53,3.4l-1.19.34h-.09c-1.39-.27-1.85-3.04-2.01-4.66-.01-.37-.01-1.52.57-2.03ZM552.83,246.72l.18-.54h.17c.5-.72,1.51-1.63,3.27-1.38,1.43.2,3.08,1.17,4.9,2.89,1.64,1.55,2.42,3.21,2.33,4.91-.18,2.69-2.53,4.45-2.62,4.52l-.25.18-.28-.06c-.23-.05-5.69-1.22-7.68-4.37-.69-1.11-.9-2.33-.58-3.63.44-1.8.61-2.51.63-2.56l-.06.03ZM539.83,252.97c.67-.54,1.49-.75,2.41-.62,1.19.17,1.71.77,1.95,1.26.72,1.52-.53,3.68-.67,3.92-.23.28-1.65,1.82-3.24,1.59-.94-.13-1.68-.82-2.17-2.06-.05-.42.19-2.89,1.72-4.09ZM520.76,263.86l.69.1.83,1.29c-.17,1.01-1.88,1.86-3.33,1.66l-.22-.03-1.17-.64c.08-1.41,1.09-2.68,3.21-2.38ZM495.34,253.46c.73-.62,1.59-.89,2.47-.76.95.13,1.9.71,2.69,1.61,1.34,1.56,1,3.97-.77,5.48-.89.77-1.95,1.11-2.98.96-.85-.12-1.62-.57-2.25-1.29-1.46-1.71-.76-4.63.84-6.01ZM474.75,236.13c.14-.27,2.67-4.49,8.81-3.62,1.19.17,2.43.51,3.72,1.04,8.2,3.35,7.28,9.41,6.79,11.19-.95,3.52-3.89,6.2-6.42,5.84-.73-.1-1.37-.44-1.94-.99-1.12-1.12-.96-2.63-.54-3.7-.53.11-1.4.05-2.38-.09-2.8-.39-6.46-1.41-7.97-4.01-.91-1.56-.94-3.47-.07-5.66ZM460.68,407.25c2.71.58,3.03,1.56,3.37,4.42.35,3.17-1.17,5.85-3.45,6.11h-.66c-1.03-.16-2.06-.87-2.79-1.92-.84-1.21-1.15-2.69-.84-4.03.99-4.38,3.17-4.75,4.38-4.58ZM456.61,395.05l-.47-.08c-3.82-.83-4.54-4.25-4.38-5.96,1.04-1.61,2.16-1.74,2.93-1.64.89.12,1.84.63,2.92,1.54,1,.82,2.39,3.46,1.7,5.03-.23.53-.9,1.36-2.71,1.11ZM459.35,253.38c1.29.18,2.75.49,4.42.98,7.16,2.07,9.2,5.14,9.63,7.34.55,2.72-.92,5.72-4.06,8.25-2.24,1.81-4.84,2.57-7.54,2.19-2.61-.37-5.24-1.81-7.04-3.87-3.32-3.76-6.78-7.68-5.25-11.36.01-.08,1.12-4.76,9.83-3.53ZM446.22,408.02c-.75,1.33-2.23,2.04-3.77,1.82l-1.37-.46c-1.74-.98-2.93-3.46-1.9-5.33.69-1.23,2.23-1.87,3.91-1.63.57.08,1.12.26,1.6.53.89.5,1.54,1.31,1.82,2.29.28.94.17,1.94-.3,2.78ZM447.47,441.45c-1.73,1.02-3.43,1.43-5.08,1.2-3.73-.52-5.93-4.16-6.52-5.26-.09,1.18-3.43,5.08-6.79,4.6-1.62-.23-2.95-1.41-3.97-3.52-.99-2.05-.72-4.22.77-6.26,1.47-2.03,3.88-3.48,5.46-3.74-1.29-.69-3.6-3.9-2.83-7.29.64-2.73,3.12-4.88,7.4-6.37,2.66-.92,4.91-1.26,6.7-1.01,1.86.26,3.24,1.16,4.08,2.66,1.85,3.32.43,8.65-.73,11.35.06-.03.18-.04.34-.02,1.4.2,6.34,2.78,6.62,6.56.18,2.47-1.65,4.86-5.44,7.11ZM461.81,445.92c-1.17,2.56-3.83,3.86-6.14,3.54-1.08-.15-2.61-.73-3.68-2.59-2.05-3.56-1.1-4.73.23-5.81.58-.46.92-.75.95-1.36.08-1.24.45-2.13,1.09-2.67l.22-.18,1.55-.3h0s1.07-.12,2.31.06c1.37.19,2.44.68,3.2,1.42,2.77,2.74,1.2,5.95.26,7.88ZM482.07,285.97c.2-1.11.88-1.97,2.01-2.58,1.08-.57,2.22-.78,3.4-.61,3.48.49,6.14,4.11,6.64,5.99.96,3.58.12,6.24-2.26,7.12l-.15.06-1.37.08c-2.58-.36-5.36-3.47-5.48-3.6-.13-.14-3.27-3.57-2.79-6.46ZM472.53,417.34c-.63-1.4-.72-2.93-.22-4.22.38-.97,1.05-1.71,1.93-2.11.67-.29,1.46-.38,2.31-.26,1.86.26,3.53,1.45,4.24,3.06,1.15,2.58-.32,5.55-2.4,6.47-.6.28-1.29.36-1.97.27-1.63-.23-3.12-1.45-3.9-3.21ZM463.37,552.81c-1.34-.19-3.2-2.52-3.72-3.24-.71-.94-2.31-3.28-2.09-4.79l.09-.67,1.68-.52c.53.08,1.1.38,1.73.96,1.6,1.49,3.99,5.68,3.59,7.35l-1.28.9ZM510.76,251.03c.71-.35,1.65-.45,2.69-.31,2.66.37,5.74,2.33,6.08,4.64.17,1.16-.25,2.83-3.24,4.21-2.13.98-3.96,1.38-5.43,1.17-3.08-.43-3.93-3.38-3.95-4.88,0-.13.08-3.01,3.86-4.82ZM474.43,495.92c.22-.12,1.24-.48,2.35-.32,1.45.2,2.41,1.19,2.7,2.8.25,1.38.07,2.46-.55,3.18-.72.87-1.75.9-1.85.9l-.47-.04c-1.53-.21-2.55-1.32-2.75-2.95-.3-2.61.31-3.36.58-3.56ZM472.03,554.59c-.63,1.28-2.47,2.06-3.68,1.89l-.25-.03-.75-.46-.29-.32.12-3.53c.18-.77.81-1.77,2.03-1.6.65.09,1.35.51,2.12,1.27,1.21,1.17.95,2.25.68,2.8ZM471.67,551.29c-.33-1.26.15-2.51,1.35-3.44.39,0,.73.02,1.03.06,1.55.22,1.96.98,1.85,2-.14,1.56-.23,2.52-.89,3.05l-1.29.3c-.93-.13-1.76-.94-2.04-1.98ZM474.69,573.82c-1.37-2.27-1.99-4.11-2.26-5.24l-.07-.33.53-1.41c.55-.71,1.49-1.13,2.42-1.14l.12.02c.86.12,1.25.46,1.82.99,1.73,1.59,1.87,3.33,1.75,4.36.27-.05.63-.03.97.02l.47.07,1.29,1.07c.18.77-.42,1.54-1.97,2.56-.91.6-1.84.86-2.7.74-.96-.14-1.77-.71-2.37-1.69ZM486.82,587.15c-1.26-.18-2.86-1.79-4.54-3.5-1.52-1.5-2.32-2.2-2.94-2.73-.9-.79-1.14-1-1.23-1.3l-.11-.36.29-1.49,2.38.11c1.61.93,2.63,1.51,3.22,1.6,1.65-.67,2.85-1.27,4.05-1.11l.2.03,1.18.59c1.31,1.09,1.23,1.97,1.06,2.4-.35.91-1.56,1.32-3.56,1.23,1.71,1.62,1.96,2.43,1.94,2.95v.38s-.99,1.05-.99,1.05l-.95.16ZM498.18,590.5c-.48.86-1.24,1.98-2.33,1.83-.69-.1-1.18-.66-1.61-1.16-1.83-.83-2.17-.92-3.16-1.18-.76-.19-2.32-.59-2.85-1.61l-.15-.29.1-1.08c.6-1.43,1.88-1.25,2.43-1.18l2.12.5h0s-.4-.55-.4-.55c.65-.47,1.57-.64,2.57-.5,1.53.21,2.87,1.08,3.44,2.23.32.64.55,1.69-.17,2.98ZM506.14,555.23l-1.36-.55c-.95-.65-1.54-1.91-1.44-3,.1-.93.67-1.66,1.63-2.07.53-.02.99,0,1.4.05,1.16.16,1.89.64,2.7,1.34.59.52,1.35,1.29,1.16,2.13-.17.81-1.03,1.07-1.65,1.26-.74.53-1.48.98-2.45.84ZM508.9,587.38l-.23.23-1.54.28-1.17-.38c-.4-.44-1.25-1.72-.87-2.77l.11-.33,1.04-.69c.51-.14,1.09-.18,1.64-.1,1,.14,1.71.63,1.95,1.33.17.52.14,1.35-.93,2.44ZM521.81,506.5c-1.12,1.24-2.68,1.83-4.27,1.61-2.52-.35-4.5-2.53-5.3-5.82-2.22-9.11,2.29-10.6,2.51-10.66h-.01s1.09-.55,2.52-.35c1.88.26,4.42,1.79,5.83,7.55.77,3.14.3,5.93-1.28,7.68ZM517.25,572.31c-1.4-.2-1.61-1.13-1.63-1.53,0-.28.06-2.31,1.18-3.27l.24-.19,1.45-.26c1.4.26,2.18,1.34,2.15,2.86-.01,1.02-.41,2.16-1.25,2.3-.62.09-1.42.2-2.13.1ZM522.27,607.1c-.88,1.47-2.26,2.24-3.66,2.04-1.37-.19-2.6-1.27-3.47-3.03-.1-.35-.35-1.84.38-2.79l.18-.24,1.21-.49c.29.03.56.07.84.1,2.4.34,4.13,1.06,4.71,2.27.23.47.37,1.22-.18,2.14ZM572.06,266.86c-1.02,1.75-3.23,2.82-5.26,2.54l-1.25-.37c-3.96-1.83-4.01-4.33-2.72-8.31.26-.36,2.24-2.16,4.76-1.8,1.41.2,2.68,1.01,3.77,2.42,1.42,1.82,1.67,3.83.7,5.52ZM534.25,587.67l-.13-.02c-.53-.08-1.5-.6-1.91-1.48-.22-.48-.37-1.27.26-2.22l.22-.35,1.34-.04c.5.07,1.2.33,1.79,1.17l.23.34v1.53c-.41.81-1.4,1.06-1.8,1.07ZM592.85,262.86l-.27-.06c-.61-.19-1.76-.53-2.29-1.59-.42-.86-.36-1.99.2-3.47.14-.23,1.21-1.6,3.1-1.33.83.12,1.69.55,2.53,1.27,1.47,1.24,1.26,2.4,1,2.99-.68,1.5-3.06,2.36-4.27,2.19ZM622.84,271.42c-4.29,2.34-8.32,3.39-11.32,2.97-3.48-.49-5.47-2.91-5.48-6.64l-1.01.48c-4.37-.61-5.1-1.45-5.24-2.2.01,0,0,0,0,0-.09-.01-2.15-2.86-1.1-6.2.98-3.06,4.22-5.45,9.63-7.1,3.96-1.2,7.18-1.64,9.64-1.29,2.13.3,3.69,1.18,4.62,2.64,1.43,2.24.92,5.12.46,6.69.02-.02.07-.02.12-.02.76.11,4.01,2.43,3.96,5.42-.04,1.96-1.47,3.73-4.28,5.25ZM659.67,279.87c-1.46.45-2.86.58-4.15.4-2.62-.37-3.91-1.91-3.96-1.98-.18-.46-1.39-5.26.9-8.01,1.15-1.37,2.92-1.98,5.28-1.8l.12.02c4.53.64,7.02,2.69,7.23,5.34.16,2.07-1.17,4.74-5.41,6.04ZM692.52,305.04c-1.05,1.24-2.82,1.7-5.24,1.36-3.91-.55-8.67-3.03-10.86-4.27.81,1.15,1.32,3.38.24,4.74-1.17,1.5-2.18,1.96-2.64,2.12.05.06.1.15.15.22,1.21.53,3.94,4.53,2.91,6.83-.29.62-.97,1.39-2.62,1.5-.75.05-1.47.03-2.09-.05-3.53-.5-4.44-3.1-4.15-5.18l.26-1.35c.17-.75.38-1.69.19-2.01-1.5-1.65-3.33-3.63-2.48-6.03.77-2.15,2.06-4.94,4.56-4.79-.51-.62-.82-4.41,1.37-7.11,1.01-1.26,2.42-2.1,4.21-2.49-1.45-.46-3.26-1.57-4.45-3.18-1.77-2.44-4.35-7.18-3.73-9.49l.5-1.85,1.73-1.11c.18-.07.87-.26,2.04-.1,1.71.24,4.44,1.26,7.71,4.75,3.48,3.72,4.81,6.11,4.56,8.23-.17,1.49-1.12,2.83-2.97,4.18.09,0,.21,0,.33.02,1.42.2,4.5,1.75,7.19,3.84,2.97,2.31,4.59,4.6,4.83,6.82.16,1.54-.35,3.03-1.52,4.41ZM718.33,366.89c-2.14-.3-3.64-2.29-3.34-4.43.29-2.06,2.08-3.27,4.38-2.95s3.68,1.98,3.39,4.04-2.29,3.64-4.43,3.34ZM680.6,743.34c-.95-.13-1.6-1.1-1.45-2.16.15-1.07,1.04-1.82,1.99-1.69.95.13,1.6,1.1,1.45,2.17s-1.04,1.81-1.99,1.68ZM683.24,736.96c-.49.4-1.18.57-1.87.47l-.98-.34c-.73-.41-1.32-1.21-1.57-2.11-.23-.86-.12-1.69.32-2.44.83-1.44,2-2.21,3.15-2.04,2.11,1.05,1.99,2.66,1.83,4.7-.08.96-.51,1.48-.87,1.77ZM703.17,750.32c-.95,3.51-3.89,7.71-5.85,7.44l-.21-.03-.49-.31c-1.3-1.19-.66-2.49-.16-3.53.6-1.22,1.21-2.46,0-4.29-.87-1.35-1.81-2.08-2.83-2.22-.55-.08-1.07.02-1.52.11-.18-.01-.37-.03-.56-.05-2.37-.33-4.44-1.98-4.72-4.35-.11-.84-.61-1.14-1.42-1.54-.73-.36-1.84-.91-1.5-2.38.43-.63,3.03-3.56,5.45-3.22,1.63.96,2.41,1.75,2.79,2.31.27-.69,1.32-1.42,2.49-1.26l.2.03,1.14.6c.54.48.78,1.2.98,1.85.22.74.38,1.18.68,1.23,1.15-1.78,1.67-3.21,3.67-2.93.98.19,1.58.62,2.01,1.33,1.58,2.55.65,8.26-.16,11.23ZM842.63,524.9c-.97-3.99-.06-6.23.57-7.21.49-.77,1.13-1.25,1.79-1.37l1.35-.06c2.09.29,3.56,2.69,4.48,7.32.65,3.22.46,5.3-.57,6.41-.75.79-1.68.76-2.05.71,0,0-.23-.05-.25-.05-1.03-.14-4.14-.98-5.32-5.75ZM852.73,540.59c-.51.66-1.21,1.01-1.9.96l-.43-.05c-2.1-.3-3.18-1.63-3.3-4.07-.16-3.03.67-3.9.92-4.09.15-.1,1.29-.66,2.53-.48.86.12,2.01.63,2.61,2.32.73,2,.56,4.12-.43,5.41ZM859.89,748.04h-.08s-.07-.02-.07-.02c-1.79-.42-2.79-1.91-3.52-2.99-.7-1-.79-1.77-.49-2.45.33-.76,1.12-1.27,2.22-1.42l.27.04,1.59.53c.45.58.33,1.36.26,1.82.98.96,1.82,1.8,1.52,2.87-.37,1.3-1.25,1.63-1.72,1.62ZM864.85,744.49l-.21-.02c-1.28-.18-2.1-1.16-2.13-1.2-.14-.74.12-2.66,1.15-3.44l2.25.08c1.09.75,1.52,1.85,1.14,2.93-.34.99-1.32,1.72-2.2,1.66ZM869.27,743.13l-.28.08-.26-.16c-1.14-.69-2.14-1.46-1.9-3.13.14-1.02,1.19-1.72,2.33-1.56.87.12,1.58.71,1.91,1.58l.11.28-.15,1.51c-.48.98-1.62,1.34-1.76,1.39ZM875.61,748.37c-.76.77-1.52.85-2.01.78-1.53-.21-2.53-2.03-2.64-2.25-.25-.65-.29-1.92,1.06-2.7l.2-.12,1.18-.1c1.08.15,2.43.94,2.83,2.09.27.8.05,1.62-.63,2.29ZM877.52,738.37c-.62.5-1.27.7-1.95.6-.91-.13-1.59-.77-2.09-1.22-.35-.5-.82-1.53-.36-2.34l.19-.32,1.22-.44c.1.01.22.02.33.03,1.77.25,3.03.97,3.31,1.97l.11.43-.77,1.29ZM885.27,729.25c-.95,4.52-2.01,8.55-4.28,8.23l-.65-.22c-1.26-.68-.82-2.79-.36-5.01.25-1.21.54-2.6.39-3.22-.16-.63-.33-1.12-.5-1.56-.29-.84-.55-1.57-.56-2.75,0-.08,0-2.05,1.3-3.18.72-.62,1.66-.86,2.8-.7,3.26.84,2.68,4.62,1.86,8.41ZM886.26,718.38l-.9.03c-1.43-.2-2.62-1.54-2.6-2.92v-.28s.65-1.4.65-1.4c.32-.3.93-.63,1.96-.48,1.43.24,2.28,1.28,2.31,2.65.05,1.19-.54,2.17-1.43,2.39ZM987.12,575.44c-1.1-.15-1.8-1.32-1.61-2.66.19-1.34,1.18-2.28,2.28-2.13,1.1.15,1.81,1.33,1.62,2.67-.19,1.34-1.2,2.27-2.29,2.11ZM1028.8,580.58c.93.13,1.55,1.07,1.41,2.09-.14,1.02-1,1.73-1.93,1.6-.94-.13-1.56-1.04-1.41-2.07.14-1.02,1-1.75,1.93-1.62ZM1026.07,597.83c-.51,1.18-1.54,2.16-2.81,1.99l-.89-.32c-1.03-2.23-.08-3.63.12-3.89.12-.32,1.16-2.46,2.68-2.24,2.28,1.32,1.3,3.52.89,4.47ZM1034.43,593.44c-.99.98-1.44,1.19-1.92,1.43-1.59,1.07-2.56,1.3-3.52,1.17-1.2-.17-2.12-.88-2.47-1.9-.48-1.44.49-3.04.6-3.23.05-.1,1.88-3.57,4.66-3.27h.01c1.56.22,2.8,1.27,3.28,2.68.38,1.17.14,2.33-.65,3.11Z"/>
</svg>