<?xml version="1.0" encoding="UTF-8" standalone="no"?>
<!DOCTYPE svg PUBLIC "-//W3C//DTD SVG 1.1//EN" "http://www.w3.org/Graphics/SVG/1.1/DTD/svg11.dtd">
<svg width="100%" height="100%" viewBox="0 0 5100 3300" version="1.1" xmlns="http://www.w3.org/2000/svg" xmlns:xlink="http://www.w3.org/1999/xlink" xml:space="preserve" xmlns:serif="http://www.serif.com/" style="fill-rule:evenodd;clip-rule:evenodd;stroke-linejoin:round;stroke-miterlimit:2;">
    <g id="Page-1" serif:id="Page 1" transform="matrix(4.166667,0,0,4.166667,0,0)">
        <rect x="0" y="0" width="1224" height="792" style="fill:none;"/>
        <g id="FINAL">
            <g>
                <g transform="matrix(1.253271,0,0,1.253271,551.042123,215.102253)">
                    <path d="M0,262.32L-19.266,0L-157.096,0L-203.039,148.203L-247.5,0L-385.329,0L-401.631,262.32L-315.673,262.32L-305.299,85.958L-253.428,262.32L-160.06,262.32L-103.742,77.066L-90.404,262.32L0,262.32Z" style="fill:rgb(35,31,32);fill-rule:nonzero;"/>
                </g>
                <g transform="matrix(1.467355,-0.365853,0.383254,1.537146,1129.637449,163.826482)">
                    <path d="M6.569,97.314L6.513,97.395L6.295,97.553C5.578,97.919 5.232,97.483 4.951,97.132C4.623,96.72 4.287,96.297 3.349,96.538C2.663,96.711 2.196,96.994 1.932,97.392C1.791,97.607 1.721,97.834 1.66,98.031C1.617,98.105 1.574,98.179 1.524,98.256C0.914,99.187 -3.832,98.526 -3.226,97.569C-2.539,97.027 -2.085,96.814 -1.8,96.738C-2.008,96.529 -2.074,95.995 -1.776,95.533L-1.726,95.457L-1.269,95.07C-0.978,94.912 -0.656,94.918 -0.367,94.927C-0.044,94.941 0.159,94.936 0.236,94.819C-0.204,94.094 -0.643,93.679 -0.128,92.897C0.147,92.519 0.434,92.337 0.796,92.26C2.101,91.969 4.08,93.153 5.034,93.897C6.154,94.771 7.09,96.552 6.569,97.314M-4.345,106.695C-4.582,107.07 -5.067,107.207 -5.427,107.001C-5.793,106.793 -5.898,106.321 -5.662,105.944C-5.425,105.568 -4.938,105.433 -4.571,105.641C-4.209,105.847 -4.107,106.319 -4.345,106.695M-6.739,101.517L-7.054,101.876C-7.347,102.122 -7.759,102.258 -8.14,102.237C-8.502,102.213 -8.794,102.055 -8.99,101.769C-9.371,101.226 -9.434,100.632 -9.155,100.177C-8.351,99.446 -7.77,99.718 -7.038,100.07C-6.695,100.236 -6.583,100.488 -6.548,100.675C-6.497,100.935 -6.568,101.244 -6.739,101.517M-66.988,212.65L-66.869,212.609L-66.118,212.499C-65.817,212.643 -65.707,212.984 -65.64,213.182C-65.045,213.371 -64.534,213.538 -64.435,214.035C-64.318,214.638 -64.609,214.952 -64.799,215.042L-64.833,215.053L-64.861,215.063C-65.673,215.257 -66.382,214.861 -66.897,214.569C-67.385,214.305 -67.579,214.012 -67.598,213.677C-67.619,213.3 -67.402,212.936 -66.988,212.65M-64.948,210.946L-64.021,210.517C-63.78,210.55 -63.583,210.638 -63.415,210.753C-63.505,210.644 -63.582,210.509 -63.64,210.337C-63.791,209.896 -63.512,209.398 -63.014,209.228C-62.635,209.099 -62.23,209.195 -61.918,209.481L-61.818,209.573L-61.568,210.214C-61.564,210.71 -61.952,211.089 -61.999,211.136L-62.095,211.226L-62.231,211.215C-62.588,211.187 -62.929,211.135 -63.199,210.949C-63.077,211.096 -62.986,211.266 -62.959,211.469C-62.894,211.939 -63.142,212.434 -63.512,212.591L-63.6,212.627C-64.155,212.816 -64.687,212.587 -64.71,212.575C-64.916,212.305 -65.204,211.475 -64.948,210.946M-61.568,195.773C-60.94,195.579 -60.383,195.825 -60.089,196.375C-59.827,196.848 -59.865,197.365 -60.178,197.636L-60.533,197.832C-61.156,198.044 -61.908,197.744 -62.181,197.181L-62.239,197.068L-62.262,196.369C-62.193,196.181 -62.015,195.925 -61.568,195.773M-58.359,202.243C-57.821,204.269 -57.427,206.117 -58.411,206.451L-58.719,206.493C-59.369,206.474 -59.62,205.531 -59.888,204.537C-60.035,203.993 -60.202,203.375 -60.39,203.154C-60.586,202.931 -60.755,202.767 -60.911,202.625C-61.202,202.345 -61.455,202.103 -61.699,201.624C-61.717,201.592 -62.114,200.793 -61.824,200.07C-61.656,199.672 -61.325,199.383 -60.833,199.216C-59.34,198.891 -58.805,200.539 -58.359,202.243M-58.361,211.963C-58.511,212.431 -58.801,212.617 -59.016,212.69C-59.678,212.916 -60.457,212.386 -60.543,212.32C-60.779,212.11 -61.052,211.603 -60.666,211.011L-60.608,210.922L-60.149,210.64C-59.679,210.48 -58.97,210.523 -58.575,210.906C-58.301,211.173 -58.223,211.55 -58.361,211.963M-61.392,208.096C-61.639,207.965 -62.037,207.646 -62.017,207.223L-62.005,207.055L-61.601,206.627C-61.556,206.612 -61.507,206.589 -61.462,206.574C-60.692,206.312 -60.037,206.348 -59.717,206.693L-59.584,206.844L-59.631,207.522C-59.778,207.85 -60.001,208.065 -60.296,208.165C-60.692,208.3 -61.099,208.179 -61.392,208.096M-136.371,67.148C-137.358,67.009 -138.052,66.092 -137.913,65.102C-137.779,64.151 -136.952,63.592 -135.892,63.74C-134.833,63.889 -134.191,64.655 -134.325,65.606C-134.464,66.596 -135.384,67.287 -136.371,67.148M-160.456,29.143C-161.251,27.999 -162.303,26.004 -162.036,25.002L-161.809,24.162L-161.026,23.657C-160.943,23.626 -160.629,23.538 -160.102,23.612C-159.327,23.72 -158.088,24.181 -156.604,25.769C-155.973,26.443 -155.505,27.018 -155.169,27.53L-160.456,29.143ZM-165.877,26.831C-166.539,27.033 -167.175,27.095 -167.76,27.012C-168.95,26.845 -169.533,26.145 -169.559,26.114C-169.639,25.907 -170.19,23.73 -169.151,22.479C-168.629,21.855 -167.824,21.579 -166.755,21.66C-166.737,21.662 -166.719,21.665 -166.702,21.667C-164.648,21.956 -163.518,22.887 -163.422,24.092C-163.349,25.032 -163.954,26.244 -165.877,26.831M-182.589,22.995C-184.536,24.054 -186.365,24.533 -187.726,24.342C-189.306,24.12 -190.208,23.022 -190.211,21.329L-190.67,21.548C-192.652,21.27 -192.985,20.888 -193.046,20.55C-193.04,20.554 -193.046,20.553 -193.046,20.553C-193.088,20.548 -194.023,19.255 -193.544,17.738C-193.101,16.349 -191.627,15.265 -189.175,14.515C-187.379,13.97 -185.914,13.772 -184.802,13.928C-183.838,14.064 -183.128,14.465 -182.707,15.125C-182.06,16.142 -182.292,17.449 -182.501,18.162C-182.494,18.154 -182.469,18.151 -182.445,18.154C-182.102,18.203 -180.627,19.258 -180.649,20.612C-180.665,21.503 -181.315,22.305 -182.589,22.995M-194.261,18.117C-194.568,18.798 -195.648,19.189 -196.199,19.112L-196.322,19.086C-196.6,19.001 -197.121,18.846 -197.361,18.363C-197.553,17.974 -197.523,17.459 -197.272,16.789C-197.209,16.683 -196.724,16.063 -195.866,16.184C-195.487,16.237 -195.098,16.433 -194.716,16.762C-194.047,17.326 -194.145,17.853 -194.261,18.117M-197.787,156.306L-197.976,156.374C-198.908,156.682 -199.628,156.348 -200.178,155.361C-200.864,154.136 -200.698,153.607 -200.632,153.476C-200.591,153.405 -200.231,152.939 -199.681,152.758C-199.299,152.632 -198.717,152.607 -198.121,153.188C-197.409,153.871 -197.044,154.783 -197.193,155.519C-197.267,155.897 -197.486,156.187 -197.787,156.306M-201.097,152.339C-201.097,152.339 -201.203,152.367 -201.209,152.369C-201.666,152.52 -203.13,152.81 -204.595,151.072C-205.814,149.612 -205.893,148.496 -205.831,147.962C-205.783,147.542 -205.617,147.211 -205.369,147.027L-204.821,146.724C-203.894,146.419 -202.792,147.115 -201.464,148.847C-200.536,150.049 -200.186,150.954 -200.389,151.624C-200.539,152.104 -200.929,152.283 -201.097,152.339M-208.019,22.076L-208.587,21.908C-210.384,21.08 -210.405,19.945 -209.819,18.139C-209.7,17.975 -208.801,17.16 -207.659,17.32C-207.02,17.41 -206.444,17.781 -205.949,18.42C-205.305,19.247 -205.192,20.159 -205.631,20.924C-206.093,21.719 -207.096,22.205 -208.019,22.076M-210.622,16.508L-210.736,16.589L-210.865,16.562C-210.971,16.541 -213.448,16.009 -214.352,14.579C-214.666,14.073 -214.758,13.52 -214.615,12.933C-214.416,12.117 -214.34,11.792 -214.331,11.772L-214.357,11.787L-214.275,11.542L-214.197,11.544C-213.969,11.217 -213.513,10.804 -212.715,10.916C-212.064,11.008 -211.317,11.448 -210.491,12.228C-209.746,12.933 -209.393,13.685 -209.435,14.458C-209.516,15.68 -210.581,16.475 -210.622,16.508M-218.577,16.694C-218.679,16.821 -219.326,17.518 -220.048,17.416C-220.474,17.356 -220.81,17.044 -221.033,16.481C-221.055,16.291 -220.945,15.169 -220.253,14.624C-219.947,14.377 -219.578,14.285 -219.158,14.343C-218.619,14.419 -218.38,14.694 -218.272,14.914C-217.947,15.603 -218.513,16.585 -218.577,16.694M-229.728,20.946L-229.829,20.932L-230.361,20.643C-230.326,20.005 -229.865,19.428 -228.906,19.562L-228.593,19.606L-228.216,20.194C-228.293,20.65 -229.071,21.039 -229.728,20.946M-233.402,18.149C-234.798,17.953 -235.183,16.614 -235.196,15.933C-235.194,15.873 -235.161,14.565 -233.447,13.744C-233.123,13.588 -232.7,13.539 -232.226,13.605C-231.019,13.775 -229.623,14.662 -229.469,15.709C-229.392,16.236 -229.583,16.993 -230.938,17.618C-231.905,18.064 -232.733,18.243 -233.402,18.149M-238.452,17.717C-238.857,18.064 -239.337,18.22 -239.805,18.155C-240.189,18.1 -240.541,17.897 -240.827,17.57C-241.49,16.792 -241.171,15.467 -240.444,14.845C-240.115,14.563 -239.724,14.443 -239.321,14.499C-238.889,14.56 -238.461,14.82 -238.103,15.232C-237.496,15.942 -237.65,17.033 -238.452,17.717M-242.021,34.098L-242.091,34.125L-242.712,34.161C-243.884,33.997 -245.145,32.585 -245.198,32.527C-245.255,32.464 -246.683,30.906 -246.463,29.597C-246.374,29.094 -246.066,28.703 -245.551,28.428C-245.062,28.168 -244.542,28.075 -244.009,28.15C-242.429,28.372 -241.224,30.014 -240.994,30.87C-240.559,32.494 -240.94,33.702 -242.021,34.098M-243.581,147.386C-243.656,148.205 -243.7,148.746 -244.393,148.759L-244.448,148.758C-245.384,148.735 -245.625,147.671 -245.702,146.075C-245.708,146.087 -245.72,146.087 -245.745,146.086C-246.061,146.079 -247.898,145.134 -248.087,144.138L-248.113,143.979L-247.823,143.299C-247.592,143.055 -247.321,142.934 -247.017,142.942C-246.58,142.953 -246.173,143.224 -245.736,143.508C-244.932,144.037 -244.606,144.801 -244.669,145.642C-244.626,145.639 -244.579,145.646 -244.531,145.647C-244.379,145.547 -244.229,145.455 -244.118,145.458C-243.966,145.461 -243.846,145.543 -243.752,145.655C-243.539,145.897 -243.456,146.246 -243.51,146.695L-243.581,147.386ZM-249.752,9.549C-250.165,8.839 -250.176,7.975 -249.783,6.98C-249.718,6.856 -248.574,4.945 -245.787,5.336C-245.249,5.412 -244.685,5.57 -244.098,5.809C-240.377,7.327 -240.793,10.078 -241.016,10.885C-241.445,12.481 -242.78,13.697 -243.928,13.535C-244.26,13.489 -244.552,13.336 -244.807,13.086C-245.314,12.577 -245.242,11.893 -245.053,11.407C-245.296,11.457 -245.69,11.429 -246.134,11.367C-247.406,11.188 -249.067,10.728 -249.752,9.549M-252.236,22.33C-253.251,23.152 -254.433,23.496 -255.658,23.324C-256.842,23.158 -258.035,22.501 -258.851,21.569C-260.355,19.864 -261.928,18.086 -261.234,16.413C-261.229,16.377 -260.725,14.255 -256.773,14.81C-256.187,14.893 -255.525,15.034 -254.766,15.255C-251.519,16.194 -250.592,17.586 -250.395,18.585C-250.145,19.818 -250.814,21.181 -252.236,22.33M-250.539,141.967L-251.222,142.315C-251.49,142.309 -251.803,142.198 -252.265,141.943C-252.445,141.835 -253.259,141.311 -253.262,140.684L-253.264,140.508L-252.812,139.972C-252.615,139.855 -252.407,139.799 -252.182,139.805C-251.562,139.82 -251.015,140.302 -250.71,140.753C-250.557,140.982 -250.324,141.407 -250.461,141.762L-250.539,141.967ZM-253.488,119.943L-253.53,119.941C-254.18,119.895 -254.538,118.652 -254.697,117.918C-254.723,117.747 -254.783,117.223 -254.545,116.955C-254.418,116.952 -254.308,116.949 -254.205,116.951C-253.226,116.975 -253.064,117.296 -252.896,118.139C-252.745,118.915 -252.703,119.421 -252.959,119.724L-253.488,119.943ZM-263.118,112.938L-263.179,112.936C-263.428,112.93 -263.898,112.742 -264.132,112.359C-264.26,112.149 -264.367,111.794 -264.131,111.326L-264.047,111.151L-263.437,111.063C-263.206,111.069 -262.868,111.15 -262.554,111.504L-262.43,111.647L-262.344,112.349C-262.493,112.74 -262.935,112.912 -263.118,112.938M-267.579,122.485C-267.907,123.206 -268.495,123.63 -269.151,123.614C-269.789,123.598 -270.411,123.169 -270.904,122.409C-270.967,122.256 -271.163,121.582 -270.878,121.108L-270.808,120.988L-270.278,120.697C-270.144,120.695 -270.016,120.698 -269.889,120.701C-268.771,120.728 -267.937,120.968 -267.609,121.493C-267.481,121.697 -267.373,122.034 -267.579,122.485M-272.554,106.181C-272.569,106.053 -272.65,105.12 -272.187,104.621L-272.088,104.52L-271.438,104.323C-270.783,104.37 -270.368,104.824 -270.3,105.519C-270.251,105.988 -270.373,106.532 -270.753,106.639C-271.035,106.711 -271.396,106.805 -271.724,106.797C-272.374,106.781 -272.522,106.364 -272.554,106.181M-274.757,114.148L-274.851,114.267L-275.543,114.475L-276.1,114.364C-276.308,114.183 -276.763,113.642 -276.647,113.14L-276.613,112.983L-276.172,112.611C-275.945,112.519 -275.682,112.471 -275.427,112.477C-274.959,112.489 -274.611,112.673 -274.46,112.981C-274.357,113.209 -274.323,113.593 -274.757,114.148M-278.377,99.373C-278.845,99.124 -279.184,98.581 -279.196,98.076C-279.197,97.644 -278.976,97.278 -278.556,97.04C-278.312,97.003 -278.105,96.984 -277.911,96.988C-277.37,97.002 -277.009,97.181 -276.602,97.459C-276.304,97.667 -275.916,97.98 -275.956,98.374C-275.99,98.757 -276.371,98.918 -276.647,99.039C-276.958,99.323 -277.274,99.564 -277.724,99.553L-278.377,99.373ZM-279.506,116.147C-279.681,116.568 -279.968,117.121 -280.479,117.108C-280.801,117.1 -281.057,116.869 -281.276,116.663C-282.157,116.38 -282.321,116.358 -282.788,116.291C-283.145,116.246 -283.885,116.143 -284.178,115.704L-284.26,115.58L-284.272,115.081C-284.073,114.393 -283.477,114.408 -283.222,114.414L-282.222,114.53L-282.222,114.529L-282.435,114.299C-282.161,114.051 -281.75,113.921 -281.282,113.933C-280.571,113.95 -279.91,114.276 -279.588,114.771C-279.406,115.049 -279.248,115.515 -279.506,116.147M-284.895,115.212C-285.485,115.198 -286.302,114.545 -287.161,113.849C-287.936,113.24 -288.343,112.962 -288.654,112.754C-289.108,112.439 -289.228,112.357 -289.285,112.222L-289.354,112.062L-289.301,111.364L-288.204,111.287C-287.416,111.629 -286.917,111.842 -286.643,111.849C-285.922,111.453 -285.403,111.113 -284.844,111.127L-284.752,111.129L-284.18,111.338C-283.522,111.767 -283.513,112.175 -283.567,112.38C-283.681,112.815 -284.21,113.07 -285.136,113.132C-284.264,113.786 -284.109,114.143 -284.091,114.38L-284.077,114.557L-284.467,115.089L-284.895,115.212ZM-291.164,109.743C-291.913,108.776 -292.294,107.964 -292.476,107.461L-292.527,107.314L-292.359,106.637C-292.144,106.283 -291.736,106.038 -291.309,105.988C-291.291,105.988 -291.273,105.988 -291.254,105.989C-290.853,105.999 -290.656,106.131 -290.369,106.345C-289.491,106.981 -289.334,107.775 -289.334,108.249C-289.211,108.21 -289.047,108.202 -288.889,108.206L-288.67,108.211L-288.024,108.634C-287.898,108.978 -288.133,109.361 -288.791,109.911C-289.176,110.236 -289.587,110.402 -289.989,110.392C-290.438,110.381 -290.84,110.158 -291.164,109.743M-293.742,99.573C-293.959,99.014 -293.805,98.416 -293.306,97.924C-293.129,97.904 -292.971,97.895 -292.831,97.899C-292.108,97.917 -291.879,98.245 -291.878,98.719C-291.86,99.443 -291.853,99.887 -292.127,100.166L-292.704,100.371C-293.135,100.36 -293.559,100.034 -293.742,99.573M-293.402,101.065C-293.624,101.686 -294.425,102.141 -294.991,102.127L-295.106,102.124L-295.473,101.951L-295.621,101.819L-295.752,100.193C-295.713,99.829 -295.475,99.336 -294.904,99.35C-294.6,99.357 -294.257,99.512 -293.864,99.819C-293.249,100.291 -293.31,100.8 -293.402,101.065M-297.467,100.71C-298.093,100.694 -299.067,99.722 -299.345,99.423C-299.719,99.031 -300.576,98.043 -300.559,97.338L-300.551,97.028L-299.807,96.7C-299.558,96.706 -299.281,96.816 -298.964,97.049C-298.152,97.646 -296.834,99.442 -296.927,100.231L-297.467,100.71ZM-302.721,61.515C-303.443,61.414 -303.77,61.078 -303.691,60.522C-303.605,59.907 -303.049,59.472 -302.445,59.557C-301.848,59.641 -301.433,60.212 -301.52,60.827C-301.598,61.383 -301.999,61.617 -302.721,61.515M-291.805,4.972C-291.673,4.976 -291.548,4.987 -291.436,5.003C-290.371,5.153 -289.894,5.838 -289.957,6.502C-290.026,7.253 -290.119,8.344 -291.129,8.401L-291.393,8.391C-292.334,8.259 -292.653,7.182 -292.671,7.137C-292.69,6.89 -292.727,5.349 -291.805,4.972M-279.252,-0.631C-279.15,-0.623 -279.049,-0.612 -278.955,-0.598C-277.765,-0.431 -277.158,0.14 -276.99,0.836C-276.819,1.554 -277.149,2.271 -277.906,2.804C-278.308,3.089 -278.735,3.204 -279.167,3.143C-280.119,3.009 -280.835,2.046 -280.891,1.586C-280.984,0.878 -280.741,-0.382 -279.252,-0.631M-330.429,40.952C-330.869,41.937 -331.917,42.523 -332.988,42.373L-333.638,42.185C-334.121,41.972 -334.464,41.622 -334.636,41.173C-334.857,40.602 -334.797,39.874 -334.462,39.124C-333.968,38.011 -333.159,37.446 -332.242,37.575C-330.447,38.286 -329.889,39.725 -330.429,40.952M-354.443,11.746C-354.748,12.158 -355.139,12.408 -355.577,12.471L-356.053,12.47C-357.183,12.311 -358.503,11.094 -358.756,9.33C-358.888,8.427 -358.721,7.497 -358.279,6.711C-357.854,5.96 -357.234,5.455 -356.611,5.365C-356.575,5.367 -356.54,5.372 -356.505,5.377C-355.037,5.583 -354.096,6.916 -353.854,8.588C-353.672,9.821 -353.892,11.003 -354.443,11.746M3.959,87.132C-4.002,83.342 -20.833,79.442 -25.375,77.746C-32.215,75.192 -33.781,73.061 -36.852,71.653C-39.843,70.281 -37.153,70.588 -43.086,68.124C-49.518,65.453 -58.537,62.977 -65.043,57.603C-70.767,52.875 -102.771,44.647 -111.481,40.983C-113.603,40.09 -120.457,37.178 -122.881,33.193C-127.423,25.726 -143.203,23.994 -146.854,24.139C-148.005,23.725 -149.131,23.362 -150.172,23.056C-154.43,21.803 -159.608,17.351 -163.499,11.933C-167.39,6.516 -191.201,6.804 -195.558,6.774C-199.916,6.743 -225.113,6.036 -231.445,6.092C-237.777,6.147 -242.307,1.657 -242.307,1.657C-242.307,1.657 -251.871,-4.775 -257.163,-8.499C-262.454,-12.224 -267.797,-11.448 -273.372,-14.194C-278.947,-16.94 -277.281,-27.247 -278.131,-29.983C-278.983,-32.719 -281.053,-34.537 -283.178,-37.525C-285.302,-40.513 -291.062,-53.317 -291.82,-55.168C-292.577,-57.019 -291.435,-60.493 -293.067,-61.813C-296.748,-64.79 -299.613,-57.644 -305.352,-60.777C-309.686,-63.143 -308.758,-72.232 -308.758,-72.232C-308.758,-72.232 -305.577,-88.141 -313.793,-92.785C-322.008,-97.429 -334.472,-89.949 -336.532,-86.676C-338.591,-83.403 -336.979,-73.145 -336.359,-68.769C-335.738,-64.393 -337.648,-62.699 -339.376,-57.127C-341.104,-51.554 -336.995,-44.071 -335.387,-35.34C-333.779,-26.609 -333.378,-20.665 -342.141,-15.209C-350.905,-9.752 -356.389,-21.936 -356.389,-21.936C-356.389,-21.936 -367.612,-46.556 -373.315,-42.706C-379.017,-38.855 -369.653,-26.344 -366.179,-20.55C-362.704,-14.755 -361.247,-9.607 -362.574,-6.886C-363.902,-4.165 -369.598,-1.912 -370.764,0.177C-371.93,2.267 -367.801,9.269 -366.137,12.943C-364.472,16.618 -364.666,17.996 -366.317,20.09C-367.968,22.184 -374.329,17.987 -374.329,17.987C-377.886,17.197 -377.297,20.631 -377.297,20.631C-377.297,20.631 -376.119,27.293 -375.234,29.928C-374.35,32.562 -375.265,34.268 -375.842,36.311C-376.419,38.354 -383.85,40.774 -384.13,42.387C-384.637,45.308 -367.977,52.477 -363.096,58.28C-359.273,62.826 -351.7,75.425 -351.7,75.425C-351.7,75.425 -346.633,86.081 -339.035,85.604C-331.438,85.127 -330.365,87.112 -325.492,89.535C-320.875,91.831 -318.344,94.787 -313.226,99.635C-312.943,99.903 -312.652,100.177 -312.352,100.457C-306.635,105.798 -297.803,113.025 -292.874,116.421C-287.945,119.817 -281.01,125.046 -277.882,127.217C-270.716,132.189 -253.839,153.686 -253.273,155.666C-252.708,157.646 -240.262,173.202 -237.151,175.182C-234.04,177.162 -232.06,179.708 -231.211,179.708C-231.211,179.708 -228.666,183.102 -223.857,189.325C-219.049,195.547 -207.985,195.35 -199.815,192.153C-186.804,187.062 -191.047,173.485 -187.936,171.788C-184.27,169.788 -178.41,177.658 -174.642,179.142C-165.308,182.819 -152.014,170.091 -150.317,166.131C-148.62,162.171 -152.297,154.251 -152.297,154.251C-152.297,154.251 -161.348,137.846 -162.197,136.432C-163.045,135.018 -165.964,130.364 -163.611,128.795C-157.954,125.024 -154.225,129.331 -153.093,130.745C-151.962,132.16 -145.988,139.742 -144.608,140.645C-129.9,150.262 -130.088,156.484 -125.563,160.727C-121.037,164.97 -113.334,173.89 -110.802,176.169C-105.145,181.26 -107.159,181.398 -105.032,183.76C-102.251,186.85 -95.733,191.117 -92.351,195.006C-87.872,200.156 -89.739,206.07 -78.158,214.66C-67.41,222.632 -62.238,221.369 -56.567,215.415C-49.025,207.495 -53.833,201.084 -54.399,197.973C-54.965,194.861 -64.669,185.843 -66.366,183.58C-68.063,181.318 -69.053,173.884 -70.045,171.68C-72.591,166.023 -79.553,159.03 -84.362,154.787C-89.17,150.545 -93.978,136.402 -96.241,132.442C-98.504,128.483 -109.818,120.563 -109.818,120.563C-109.818,120.563 -116.889,115.472 -120.849,111.795C-124.809,108.118 -131.974,100.009 -127.92,95.39C-121.763,88.374 -94.363,89.962 -92.666,90.528C-90.969,91.094 -86.65,93.952 -83.332,94.771C-78.823,95.883 -68.437,96.07 -65.609,97.202C-62.78,98.333 -50.092,99.107 -42.52,100.935C-34.948,102.763 -26.528,105.297 -23.508,107.611C-10.568,117.526 2.844,120.193 10.424,105.997C14.92,97.577 11.919,90.922 3.959,87.132Z" style="fill:rgb(35,31,32);"/>
                </g>
            </g>
        </g>
    </g>
</svg>
